<svg data-v-fde0c5aa="" xmlns="http://www.w3.org/2000/svg" viewBox="0 0 300 300" class="iconAbove"><!----><defs data-v-fde0c5aa=""><!----></defs><rect data-v-fde0c5aa="" fill="#FFFFFF" x="0" y="0" width="300px" height="300px" class="logo-background-square"></rect><defs data-v-fde0c5aa=""><!----></defs><g data-v-fde0c5aa="" id="ca91ffeb-362f-497f-a3a9-cc481c9b1ca5" fill="#10DD8E" transform="matrix(2.82639423891542,0,0,2.82639423891542,19.7173605718968,178.04989652337963)"><path d="M7.46 10.22L8.43 10.22L4.76 0.57L3.78 0.57L0.10 10.22L1.08 10.22L2.04 7.66L6.50 7.66ZM2.37 6.83L4.27 1.81L6.17 6.83ZM15.12 3.68L15.12 4.94C14.63 4.06 13.62 3.54 12.52 3.54C10.68 3.54 9.20 4.96 9.20 6.94C9.20 8.93 10.70 10.36 12.52 10.36C13.61 10.36 14.63 9.84 15.12 8.96L15.12 9.30C15.12 11.82 14.07 12.63 12.47 12.63C11.69 12.63 10.88 12.24 10.40 11.47L9.65 11.89C10.29 12.95 11.37 13.48 12.47 13.48C14.60 13.48 16.02 12.42 16.02 9.25L16.02 3.68ZM12.59 9.51C11.21 9.51 10.09 8.39 10.09 6.93C10.09 5.49 11.21 4.40 12.59 4.40C13.89 4.40 15.12 5.39 15.12 6.97C15.12 8.48 13.94 9.51 12.59 9.51ZM21.21 3.54C20.19 3.54 19.49 4.17 19.17 5.28L19.17 3.68L18.26 3.68L18.26 10.22L19.17 10.22L19.17 7.76C19.17 6.15 19.64 4.41 21.20 4.41C21.43 4.41 21.74 4.45 22.08 4.59L22.25 3.74C21.99 3.61 21.57 3.54 21.21 3.54ZM26.14 10.36C28 10.36 29.57 9.00 29.57 6.93C29.57 4.86 28 3.54 26.14 3.54C24.28 3.54 22.72 4.86 22.72 6.93C22.72 9.00 24.28 10.36 26.14 10.36ZM26.14 9.51C24.75 9.51 23.62 8.48 23.62 6.93C23.62 5.39 24.75 4.40 26.14 4.40C27.51 4.40 28.67 5.39 28.67 6.93C28.67 8.48 27.51 9.51 26.14 9.51ZM31.65 10.22L36.68 10.22L36.68 9.35L32.58 9.35L32.58 0.57L31.65 0.57ZM38.57 1.90C38.96 1.90 39.27 1.64 39.27 1.27C39.27 0.90 38.96 0.63 38.57 0.63C38.21 0.63 37.88 0.90 37.88 1.27C37.88 1.64 38.21 1.90 38.57 1.90ZM38.12 10.22L39.02 10.22L39.02 3.68L38.12 3.68ZM46.73 3.68L46.73 4.94C46.24 4.06 45.23 3.54 44.13 3.54C42.29 3.54 40.81 4.96 40.81 6.94C40.81 8.93 42.31 10.36 44.13 10.36C45.22 10.36 46.24 9.84 46.73 8.96L46.73 9.30C46.73 11.82 45.68 12.63 44.09 12.63C43.30 12.63 42.49 12.24 42.01 11.47L41.26 11.89C41.90 12.95 42.98 13.48 44.09 13.48C46.21 13.48 47.63 12.42 47.63 9.25L47.63 3.68ZM44.20 9.51C42.83 9.51 41.71 8.39 41.71 6.93C41.71 5.49 42.83 4.40 44.20 4.40C45.50 4.40 46.73 5.39 46.73 6.97C46.73 8.48 45.56 9.51 44.20 9.51ZM53.03 3.54C52.22 3.54 51.16 3.92 50.76 4.86L50.76 0L49.87 0L49.87 10.22L50.76 10.22L50.76 6.59C50.79 5.01 51.90 4.42 52.95 4.42C54.00 4.42 54.80 5.19 54.80 6.45L54.80 10.22L55.69 10.22L55.69 6.41C55.69 4.61 54.61 3.54 53.03 3.54ZM60.56 3.68L59.07 3.68L59.07 1.08L58.18 1.08L58.18 3.68L56.99 3.68L56.99 4.45L58.18 4.45L58.18 10.22L59.07 10.22L59.07 4.45L60.56 4.45ZM71.26 0.57L64.19 0.57L64.19 1.44L67.26 1.44L67.26 10.22L68.18 10.22L68.18 1.44L71.26 1.44ZM77.50 6.93C77.50 4.86 76.15 3.54 74.28 3.54C72.44 3.54 70.95 4.86 70.95 6.93C70.95 9.00 72.44 10.36 74.28 10.36C75.52 10.36 76.64 9.77 77.21 8.72L76.44 8.39C76.01 9.10 75.21 9.51 74.31 9.51C73.00 9.51 72.02 8.72 71.86 7.32L77.49 7.32C77.50 7.20 77.50 7.06 77.50 6.93ZM71.88 6.55C72.04 5.15 73.00 4.40 74.28 4.40C75.56 4.40 76.50 5.19 76.62 6.55ZM82.26 10.35C83.20 10.35 84.03 10.01 84.62 9.45L84.06 8.85C83.61 9.25 82.99 9.49 82.29 9.49C80.86 9.49 79.70 8.47 79.70 6.94C79.70 5.40 80.86 4.40 82.29 4.40C82.99 4.40 83.61 4.65 84.06 5.05L84.62 4.44C84.03 3.89 83.20 3.54 82.26 3.54C80.40 3.54 78.81 4.87 78.81 6.94C78.81 9.02 80.40 10.35 82.26 10.35ZM89.43 3.54C88.62 3.54 87.56 3.92 87.16 4.86L87.16 0L86.27 0L86.27 10.22L87.16 10.22L87.16 6.59C87.19 5.01 88.30 4.42 89.35 4.42C90.40 4.42 91.20 5.19 91.20 6.45L91.20 10.22L92.09 10.22L92.09 6.41C92.09 4.61 91.01 3.54 89.43 3.54Z"></path></g><defs data-v-fde0c5aa=""><!----></defs><g data-v-fde0c5aa="" id="f81f4c0d-2d44-4a09-8b64-d3799706f822" stroke="none" fill="#EB1041" transform="matrix(2.3812370654224537,0,0,2.3812370654224537,111.90020695324074,83.85031042986111)"><path d="M9.571 20.464l8.064 4.47 8.065-4.47v-8.939l-8.065-4.469-8.064 4.469z"></path><path d="M32 0H0v32h32l-5.054-5.172H5.054V5.172h21.892z"></path></g><!----></svg>